<svg xmlns="http://www.w3.org/2000/svg" xmlns:xlink="http://www.w3.org/1999/xlink" width="1366" zoomAndPan="magnify" viewBox="0 0 1024.5 576" height="768" preserveAspectRatio="xMidYMid meet" version="1.0"><defs><clipPath id="b08b9d3916"><path d="M 254 223 L 649 223 L 649 528 L 254 528 Z M 254 223 " clip-rule="nonzero"/></clipPath><clipPath id="9ec8b93c63"><path d="M 494.261719 612.6875 L 253.917969 394.292969 L 408.761719 223.882812 L 649.105469 442.28125 Z M 494.261719 612.6875 " clip-rule="nonzero"/></clipPath><clipPath id="3aa4e88b34"><path d="M 494.261719 612.6875 L 253.917969 394.292969 L 408.761719 223.882812 L 649.105469 442.28125 Z M 494.261719 612.6875 " clip-rule="nonzero"/></clipPath><clipPath id="b14432e1b1"><path d="M 94.21875 19.277344 L 931 19.277344 L 931 406 L 94.21875 406 Z M 94.21875 19.277344 " clip-rule="nonzero"/></clipPath><clipPath id="aac8fdb3fe"><path d="M 121.21875 19.277344 L 903.28125 19.277344 C 910.441406 19.277344 917.308594 22.121094 922.371094 27.183594 C 927.433594 32.25 930.28125 39.117188 930.28125 46.277344 L 930.28125 379.535156 C 930.28125 394.445312 918.191406 406.535156 903.28125 406.535156 L 121.21875 406.535156 C 114.058594 406.535156 107.191406 403.691406 102.128906 398.628906 C 97.066406 393.5625 94.21875 386.695312 94.21875 379.535156 L 94.21875 46.277344 C 94.21875 31.367188 106.308594 19.277344 121.21875 19.277344 " clip-rule="nonzero"/></clipPath><clipPath id="48feb78c2a"><path d="M 570.816406 304.449219 L 930 304.449219 L 930 548 L 570.816406 548 Z M 570.816406 304.449219 " clip-rule="nonzero"/></clipPath><clipPath id="f44a6dd854"><path d="M 597.816406 304.449219 L 903.28125 304.449219 C 910.441406 304.449219 917.308594 307.292969 922.371094 312.355469 C 927.433594 317.421875 930.28125 324.289062 930.28125 331.449219 L 930.28125 521.691406 C 930.28125 536.601562 918.191406 548.691406 903.28125 548.691406 L 597.816406 548.691406 C 590.65625 548.691406 583.789062 545.84375 578.726562 540.78125 C 573.660156 535.71875 570.816406 528.851562 570.816406 521.691406 L 570.816406 331.449219 C 570.816406 316.535156 582.90625 304.449219 597.816406 304.449219 " clip-rule="nonzero"/></clipPath></defs><g clip-path="url(#b08b9d3916)"><g clip-path="url(#9ec8b93c63)"><g clip-path="url(#3aa4e88b34)"><path fill="#454d5e" d="M 408.875 223.988281 L 648.992188 442.175781 L 571.816406 527.109375 C 483.5625 355.726562 254.03125 394.394531 254.03125 394.394531 Z M 408.875 223.988281 " fill-opacity="1" fill-rule="nonzero"/></g></g></g><g clip-path="url(#b14432e1b1)"><g clip-path="url(#aac8fdb3fe)"><path fill="#454d5e" d="M 94.21875 19.277344 L 931.21875 19.277344 L 931.21875 405.378906 L 94.21875 405.378906 Z M 94.21875 19.277344 " fill-opacity="1" fill-rule="nonzero"/></g></g><g clip-path="url(#48feb78c2a)"><g clip-path="url(#f44a6dd854)"><path fill="#454d5e" d="M 570.816406 304.449219 L 929.917969 304.449219 L 929.917969 547.449219 L 570.816406 547.449219 Z M 570.816406 304.449219 " fill-opacity="1" fill-rule="nonzero"/></g></g></svg>