<?xml version="1.0" encoding="utf-8"?>
<!-- Generator: Adobe Illustrator 19.0.0, SVG Export Plug-In . SVG Version: 6.00 Build 0)  -->
<svg version="1.1" id="Layer_1" xmlns="http://www.w3.org/2000/svg" xmlns:xlink="http://www.w3.org/1999/xlink" x="0px" y="0px"
	 viewBox="0 0 595.3 841.9" style="enable-background:new 0 0 595.3 841.9;" xml:space="preserve">
<style type="text/css">
	.st0{fill:#FFFFFF;}
</style>
<g>
	<path class="st0" d="M41.6,463.9c0-103.6,0-207.2,0-310.9c170.5,0,341.1,0,512,0c0,103.6,0,207.3,0,310.9c-6-18-12-36-17.9-54
		c-8.1-24.5-13.8-49.8-24.6-73.4c-4.1-9.1-10.2-16.2-18.2-21.4c-21.7-14.3-46.3-21.4-71.2-27.3c-1.9-0.5-4.2-1.9-5.2-3.5
		c-13.5-22.4-33.4-33.2-59.3-31c-7,0.6-10.7-1.9-15.2-5.5c-19.5-15.6-41-17.8-63.2-7.3c-8.3,3.9-15.1,11.2-22.6,16.9
		c-5.7-1.4-12.4-4-19.3-4.4c-25.3-1.4-44.8,9-58,30.8c-1,1.6-2.9,3.5-4.6,3.8c-17.5,3.2-34.6,8.1-50.8,15.4
		c-9.6,4.4-18.6,10.3-27.1,16.5C86.5,327,82.7,338.6,79,350.1c-8.4,26.3-16.9,52.7-25.5,79C49.7,440.7,45.6,452.3,41.6,463.9z"/>
	<path class="st0" d="M553.6,480.9c0,61.3,0,122.7,0,184c-170.7,0-341.3,0-512,0c0-61.3,0-122.7,0-184c0.3,0.5,0.9,1,0.9,1.5
		c2.2,14.4,9.1,26.5,18.4,37.2c14.8,17.2,33.4,29.7,53.8,39.1c13.7,6.3,28,11.5,42.4,16c25.1,7.9,50.9,12.9,77.2,15.1
		c18.5,1.5,37.1,3.4,55.7,3.8c16.3,0.4,32.7-1,49.1-1.8c9-0.4,18.1-0.8,27.1-2.1c14.7-2.2,29.3-5,43.8-7.8
		c24.4-4.7,48.1-12.1,70.3-23.2c13.8-6.9,27-15.3,39.2-24.8c10.3-8,19.9-17.6,25.4-30C548.4,496.4,550.8,488.6,553.6,480.9z"/>
	<path d="M553.6,480.9c-2.8,7.7-5.3,15.6-8.6,23c-5.5,12.4-15.1,22-25.4,30c-12.2,9.4-25.4,17.9-39.2,24.8
		c-22.2,11.1-45.9,18.5-70.3,23.2c-14.6,2.8-29.1,5.6-43.8,7.8c-8.9,1.3-18,1.7-27.1,2.1c-16.4,0.8-32.7,2.2-49.1,1.8
		c-18.6-0.4-37.1-2.3-55.7-3.8c-26.3-2.2-52.1-7.2-77.2-15.1c-14.4-4.5-28.7-9.8-42.4-16c-20.5-9.3-39-21.9-53.8-39.1
		c-9.3-10.8-16.2-22.9-18.4-37.2c-0.1-0.5-0.6-1-0.9-1.5c0-5.7,0-11.3,0-17c4-11.6,8.1-23.2,11.9-34.9c8.6-26.3,17.1-52.6,25.5-79
		c3.7-11.4,7.5-23,17.6-30.4c8.5-6.2,17.5-12.1,27.1-16.5c16.1-7.4,33.2-12.2,50.8-15.4c1.7-0.3,3.6-2.2,4.6-3.8
		c13.3-21.8,32.7-32.2,58-30.8c6.8,0.4,13.5,3,19.3,4.4c7.5-5.7,14.3-12.9,22.6-16.9c22.2-10.5,43.7-8.3,63.2,7.3
		c4.5,3.6,8.2,6.1,15.2,5.5c25.8-2.2,45.8,8.6,59.3,31c1,1.6,3.2,3.1,5.2,3.5c25,5.9,49.5,13,71.2,27.3c8,5.3,14,12.4,18.2,21.4
		c10.8,23.7,16.5,48.9,24.6,73.4c6,18,12,36,17.9,54C553.6,469.6,553.6,475.2,553.6,480.9z M94.3,373.2c-3.3,10.3-6.5,19.8-9.6,29.4
		c-6.1,18.9-12,37.9-18.3,56.7c-2.8,8.3-4.6,16.2-1.2,25c5,13.1,13,23.5,23.7,32.5c16.4,13.8,35.1,23.3,54.9,30.8
		c19.9,7.6,40.5,13.4,61.8,16.2c22.1,2.9,44.2,6.7,66.4,7.7c27.6,1.2,55.4,1.4,82.9-2.7c16.6-2.5,33.3-4.7,49.8-8
		c35.3-7,68.8-18.9,98-40.9c13.4-10.1,23.9-22.3,28.4-38.9c0.9-3.5,2.1-7.7,1.1-11c-7.4-24.6-15.4-49.1-23.1-73.6
		c-2.5-7.8-4.9-15.5-7.4-23.6c-3.7,3-6.6,5.7-9.8,7.9c-16.9,11.4-36,17.6-55.3,22.9c-28.1,7.7-57,11.4-86,14
		c-14,1.3-28.1,1.7-42.1,2c-9.4,0.2-18.9-0.5-28.3-0.9c-13.5-0.6-27.1-1-40.6-2.1c-12.6-1-25.3-1.9-37.7-4.2
		c-16.7-3-33.3-6.4-49.6-11C131.5,395.9,111.3,388.7,94.3,373.2z M135.7,321.4c-10.2,5.1-20.1,9.2-27.6,17.4
		c-5.7,6.3-5.8,10.9,0,17.1c10.3,10.9,23.8,16.1,37.3,20.9c21.2,7.6,43.2,12.5,65.6,15c19.9,2.2,39.8,5.3,59.8,5.7
		c25.3,0.6,50.7-0.6,76.1-1.9c14.9-0.7,29.7-2.9,44.5-4.9c22-3,43.6-8,64.3-16.1c11.7-4.6,23.4-9.6,32.1-19.4
		c5-5.6,5.2-10.2,0.3-15.6c-7.9-8.7-18.3-13.2-27.4-17.2c3.2,7.2,7.1,14.9,10.1,23c1.8,5.1,2.8,10.8-0.2,15.9
		c-2.5,4.1-8.5,6.1-12.8,4.3c-4.3-1.8-6.4-5.5-7.2-10.2c-0.6-3.9-1.6-8-3.4-11.5c-7.6-14.6-21.1-22.6-35.3-29.2
		c-6.7-3.1-10.3-7.3-12.6-14.2c-1.9-5.7-5.2-11.6-9.5-15.7c-11.1-10.6-24.9-12.4-39.6-8.9c-8.1,2-11.9,0.6-16.6-5.9
		c-6.6-9.1-16.1-13.5-26.8-14.1c-16.3-0.9-27.8,7.3-35,21.5c-3.2,6.3-9.8,8.3-15.3,5.3c-2-1.1-3.9-2.4-5.9-3.5
		c-12.9-6.9-25.8-6.5-38.5,0.6c-9.5,5.3-14,14-17.5,23.8c-1.2,3.4-4,6.9-7.1,8.9c-7.1,4.6-15.1,7.7-22.1,12.4
		c-9.3,6.3-17.4,14.1-20.2,25.7c-0.7,3-0.6,6.3-1.7,9.1c-1.4,3.6-4.7,6.9-11.6,5.9c-4.1-0.6-7.6-2.9-8-6.8c-0.8-7-0.7-14.2,2.7-20.7
		C129.4,333,132.3,327.6,135.7,321.4z"/>
	<path class="st0" d="M94.3,373.2c17,15.4,37.2,22.6,57.8,28.4c16.3,4.6,32.9,8,49.6,11c12.4,2.2,25.1,3.2,37.7,4.2
		c13.5,1,27.1,1.5,40.6,2.1c9.4,0.4,18.9,1.1,28.3,0.9c14-0.3,28.1-0.7,42.1-2c29-2.6,57.9-6.4,86-14c19.3-5.3,38.5-11.5,55.3-22.9
		c3.3-2.2,6.2-4.9,9.8-7.9c2.5,8,4.9,15.8,7.4,23.6c7.8,24.5,15.7,49,23.1,73.6c1,3.3-0.1,7.5-1.1,11c-4.4,16.6-15,28.8-28.4,38.9
		c-29.2,22-62.6,33.9-98,40.9c-16.5,3.3-33.2,5.5-49.8,8c-27.5,4.1-55.3,3.9-82.9,2.7c-22.2-1-44.3-4.7-66.4-7.7
		c-21.2-2.8-41.8-8.7-61.8-16.2c-19.7-7.5-38.5-17-54.9-30.8c-10.7-9-18.6-19.4-23.7-32.5c-3.4-8.9-1.6-16.7,1.2-25
		c6.3-18.8,12.2-37.8,18.3-56.7C87.8,393.1,90.9,383.5,94.3,373.2z M363.6,495.7c6.5-7.4,8.1-17.4,4.1-24.9
		c-4.5-8.2-12.7-12.3-22.4-10.9c-8.3,1.2-14.3,7.4-16.8,16.8c-0.3,1.3-2.3,3-3.5,3c-15.6,0.2-31.3,0.1-47,0.1
		c-1.8-10-6.5-17.7-16.6-19.8c-7.8-1.6-15.5-0.1-20.8,6.8c-7.6,9.9-6.2,19.7,1,28.9c-7.8,10.8-8,20.4-0.9,29.5
		c4.7,6,16.6,8.9,24.4,5c3.6-1.8,6.8-5,9.2-8.4c4.4-6.1,3.8-13.1,1.6-20c18,0,35.7,0,53.3,0c-4.7,16.7,2.7,23.9,10.6,28.4
		c6.9,4,19.9,0.9,24.9-5.4C371.9,516.3,371.5,505.8,363.6,495.7z"/>
	<path class="st0" d="M135.7,321.4c-3.4,6.2-6.3,11.5-9.1,16.9c-3.4,6.6-3.5,13.7-2.7,20.7c0.4,3.9,3.9,6.2,8,6.8
		c6.9,1,10.2-2.3,11.6-5.9c1.1-2.8,1-6.1,1.7-9.1c2.8-11.6,10.9-19.4,20.2-25.7c7-4.7,15-7.9,22.1-12.4c3-2,5.8-5.5,7.1-8.9
		c3.5-9.8,8-18.5,17.5-23.8c12.8-7.1,25.6-7.5,38.5-0.6c2,1.1,3.9,2.4,5.9,3.5c5.5,3,12.1,1.1,15.3-5.3c7.2-14.2,18.7-22.4,35-21.5
		c10.8,0.6,20.3,4.9,26.8,14.1c4.7,6.5,8.5,7.9,16.6,5.9c14.6-3.5,28.4-1.7,39.6,8.9c4.3,4.1,7.6,10,9.5,15.7
		c2.3,6.9,5.9,11.1,12.6,14.2c14.2,6.6,27.6,14.6,35.3,29.2c1.8,3.5,2.8,7.6,3.4,11.5c0.8,4.7,2.8,8.4,7.2,10.2
		c4.3,1.8,10.2-0.2,12.8-4.3c3.1-5,2.1-10.8,0.2-15.9c-3-8.1-6.9-15.9-10.1-23c9,4,19.5,8.5,27.4,17.2c4.9,5.4,4.7,10-0.3,15.6
		c-8.7,9.8-20.4,14.8-32.1,19.4c-20.7,8.1-42.3,13.1-64.3,16.1c-14.8,2-29.6,4.1-44.5,4.9c-25.3,1.3-50.7,2.5-76.1,1.9
		c-20-0.5-39.9-3.5-59.8-5.7c-22.4-2.5-44.4-7.4-65.6-15c-13.5-4.8-27.1-10-37.3-20.9c-5.8-6.2-5.7-10.8,0-17.1
		C115.6,330.6,125.5,326.5,135.7,321.4z M282.7,357.9c1.2,0,2.3,0,3.5,0c7.9,0,11.4-3.4,11.4-10.8c0-6.2-4.1-9.8-11.2-10.2
		c-4.3-0.2-8.5-0.7-12.7-1.4c-11.8-2.1-21.9-7-30.2-16c-5-5.5-13.5-3.7-16.7,2.9c-2.4,4.9-1.3,9.9,3.8,15
		C245,351.7,263.1,356.9,282.7,357.9z M379.6,338.9c1-7.1-3.8-11.4-8.7-12c-6.4-0.7-10.8,1.4-11.8,7.5c-1.3,8.1-5.3,11.2-12.8,12.8
		c-5.8,1.3-8.4,4.7-7.7,12.3c0.4,4,3.9,7.9,7.8,8.4C361.7,369.6,380,356.8,379.6,338.9z"/>
	<path d="M363.6,495.7c7.9,10.1,8.3,20.6,1.3,29.4c-5,6.3-18,9.4-24.9,5.4c-7.8-4.6-15.3-11.7-10.6-28.4c-17.7,0-35.3,0-53.3,0
		c2.2,6.9,2.8,13.9-1.6,20c-2.4,3.3-5.6,6.6-9.2,8.4c-7.8,3.9-19.7,1-24.4-5c-7.1-9.1-6.9-18.6,0.9-29.5c-7.3-9.3-8.7-19-1-28.9
		c5.3-6.9,13-8.4,20.8-6.8c10.1,2.1,14.8,9.8,16.6,19.8c15.7,0,31.3,0.1,47-0.1c1.2,0,3.1-1.8,3.5-3c2.5-9.4,8.5-15.6,16.8-16.8
		c9.6-1.3,17.9,2.7,22.4,10.9C371.7,478.3,370.1,488.3,363.6,495.7z"/>
	<path d="M282.7,357.9c-19.7-1-37.7-6.2-52.1-20.5c-5.1-5.1-6.3-10.1-3.8-15c3.2-6.6,11.7-8.4,16.7-2.9c8.3,9,18.4,13.9,30.2,16
		c4.2,0.7,8.5,1.2,12.7,1.4c7.1,0.4,11.2,4,11.2,10.2c0,7.5-3.6,10.8-11.4,10.8C285.1,357.9,283.9,357.9,282.7,357.9z"/>
	<path d="M379.6,338.9c0.3,18-18,30.7-33.2,29c-3.9-0.4-7.4-4.4-7.8-8.4c-0.7-7.5,1.9-11,7.7-12.3c7.5-1.7,11.5-4.7,12.8-12.8
		c1-6.1,5.4-8.2,11.8-7.5C375.9,327.5,380.7,331.8,379.6,338.9z"/>
</g>
</svg>
