<?xml version="1.0" encoding="utf-8"?>
<!-- Generator: Adobe Illustrator 19.0.0, SVG Export Plug-In . SVG Version: 6.00 Build 0)  -->
<svg version="1.1" id="Layer_1" xmlns="http://www.w3.org/2000/svg" xmlns:xlink="http://www.w3.org/1999/xlink" x="0px" y="0px"
	 viewBox="0 0 60 60" style="enable-background:new 0 0 60 60;" xml:space="preserve">
<style type="text/css">
	.st0{opacity:0.49;}
</style>
<g id="XMLID_1_" class="st0">
	<path id="XMLID_37_" d="M39.8,42c0,0.9-0.2,1.8-1,2.5c-1.1,1-2.5,1-3.9,0.2c-1.1-0.6-2.2-1.2-3.5-1.5c-1.4-0.2-2.8,0.1-4.1,0.6
		c-1,0.4-2,0.9-3,1.2c-2.1,0.6-3.4-0.5-3.9-2.5c-0.3-0.9-0.1-1.8,0.1-2.7c0.6-2.6,1.6-5,3.1-7.3c0.7-1,1.5-1.9,2.6-2.6
		c1.6-1,3.4-1.4,5.3-0.9c1,0.3,1.8,0.9,2.6,1.6c1.7,1.7,2.9,3.7,4.1,5.8c0.8,1.4,1.4,2.9,1.6,4.5C39.7,41.4,39.7,41.7,39.8,42z"/>
	<path id="XMLID_36_" d="M37.3,16.8c0,2-0.4,3.9-1.6,5.6c-0.5,0.8-1.3,1.3-2.1,1.7C33,24.3,32.5,24,32,23.7
		c-0.9-0.6-1.4-1.4-1.6-2.4c-0.8-3.1-0.5-6.1,1.4-8.8c0.6-0.8,1.4-1.5,2.5-1.4c0.5,0,1,0.2,1.4,0.6c0.9,0.9,1.3,2,1.5,3.2
		C37.2,15.6,37.2,16.2,37.3,16.8z"/>
	<path id="XMLID_35_" d="M21.1,16.6c0-1.4,0.2-2.8,1-4c0.2-0.3,0.5-0.6,0.8-0.9c0.9-0.7,1.8-0.5,2.7,0.1c1.1,0.8,1.8,2,2.2,3.3
		c0.6,2.1,0.9,4.3,0.2,6.4c-0.3,0.8-0.6,1.5-1.3,2c-0.9,0.7-1.7,0.7-2.5,0.1c-1.7-1.2-2.4-3-2.8-4.9C21.2,18.1,21.2,17.3,21.1,16.6z
		"/>
	<path id="XMLID_34_" d="M40.4,21.4c1.1,0,1.6,0.7,2,1.5c0.5,1,0.7,2.2,0.6,3.3c-0.1,1.3-0.3,2.6-0.9,3.8c-0.5,1-1.1,1.9-2.1,2.6
		c-1.6,1-2.9,0.4-3.6-1.1c-0.6-1.3-0.7-2.7-0.5-4.1c0.2-1.3,0.6-2.5,1.2-3.6c0.6-1,1.4-1.9,2.7-2.3C40,21.4,40.2,21.4,40.4,21.4z"/>
	<path id="XMLID_33_" d="M15.5,26.3c0-0.9,0.1-1.8,0.5-2.7c0.7-1.6,2.6-2,3.9-0.9c1.6,1.4,2.4,3.2,2.7,5.3c0.2,1,0.1,2.1-0.1,3.1
		c-0.2,0.9-0.6,1.6-1.4,2.2c-0.8,0.5-1.5,0.3-2.3-0.1c-1.8-1.1-2.6-2.9-3.1-4.8C15.6,27.7,15.6,27,15.5,26.3z"/>
</g>
</svg>
