<?xml version="1.0" encoding="utf-8"?>
<!-- Generator: Adobe Illustrator 19.0.0, SVG Export Plug-In . SVG Version: 6.00 Build 0)  -->
<svg version="1.1" id="Layer_1" xmlns="http://www.w3.org/2000/svg" xmlns:xlink="http://www.w3.org/1999/xlink" x="0px" y="0px"
	 viewBox="0 0 60 60" style="enable-background:new 0 0 60 60;" xml:space="preserve">
<style type="text/css">
	.st0{fill:#2F323A;}
</style>
<g>
	<path class="st0" d="M6.1,293.8c1.2-4.4,2.1-8.7,3.5-12.7c3.6-10.1,7.3-20.2,6.2-31.3c-1.1-11.3-4.4-22-9.9-31.9
		c-0.8-1.4-1.9-2.7-3-3.8c-3.7-3.8-8.1-4.1-11.8-0.3c-2.7,2.7-5.2,5.9-6.7,9.4c-3.4,8-6.5,16.2-9,24.5
		c-4.4,14.4-11.9,26.2-26.2,32.3c-12.7,5.4-25.6,5.2-37.9-1.6c-7.3-4.1-10.6-10.8-10.9-18.9c-0.3-7.6,0.2-15.2,0.1-22.9
		c-0.2-7.6-0.1-15.3-1.3-22.8c-2.3-14.9-11.9-24.6-24.1-32.6c-16-10.6-33-11.5-51-7.9c-9.4,1.9-19,3-28.5,4.1
		c-18.2,2.1-35.2-1.6-50.8-11.5c-4-2.5-8.4-4.5-12.2-7.3c-5.7-4.3-11.9-5.2-18.9-5.2c-45.5,0.2-91,0.1-136.5,0.1
		c-14,0-24.5-8.3-27.4-21.4c-0.4-1.9-0.5-4-0.5-5.9c0-110.9,0-221.7,0-332.6c0-15.6,11.4-27,26.9-27c89,0,178,0,267,0
		c171.1,0,342.2,0.1,513.3-0.2c15,0,28.8,11.5,28.7,28.6c-0.3,90.2-0.1,180.5-0.1,270.7c0,66.1,0,132.2,0,198.3
		c0,13.2-5.8,22.7-16.9,27c-3.3,1.3-7,1.9-10.6,1.9c-101.5,0.1-203,0-304.5,0.1C37.8,293,22.5,293.5,6.1,293.8z"/>
</g>
</svg>
